<svg width="500" height="500" viewBox="0 0 500 500" fill="none" xmlns="http://www.w3.org/2000/svg">
<circle cx="250" cy="250" r="250" fill="white"/>
<path fill-rule="evenodd" clip-rule="evenodd" d="M250.5 118C192.5 118 156.25 147.333 141.75 206C163.5 176.667 188.875 165.667 217.875 173C234.421 177.18 246.247 189.329 259.337 202.765C280.66 224.659 305.342 250 359.25 250C417.25 250 453.5 220.667 468 162C446.25 191.333 420.875 202.333 391.875 195C375.329 190.82 363.503 178.671 350.413 165.235C329.09 143.341 304.408 118 250.5 118ZM141.75 250C83.75 250 47.5 279.333 33 338C54.75 308.667 80.125 297.667 109.125 305C125.671 309.188 137.497 321.329 150.587 334.765C171.91 356.659 196.592 382 250.5 382C308.5 382 344.75 352.667 359.25 294C337.5 323.333 312.125 334.333 283.125 327C266.579 322.82 254.753 310.671 241.663 297.235C220.34 275.341 195.658 250 141.75 250Z" fill="black"/>
</svg>
