<svg width="182" height="161" viewBox="0 0 182 161" fill="none" xmlns="http://www.w3.org/2000/svg">
<g filter="url(#filter0_d_9_877)">
<rect x="28.0619" y="131.768" width="125.697" height="3.59531" fill="white"/>
<rect width="125.801" height="3.59233" transform="matrix(-0.499585 -0.866265 0.865786 -0.500415 158.068 127.493)" fill="white"/>
<rect width="125.801" height="3.59233" transform="matrix(0.499585 -0.866265 0.865786 0.500415 20.6997 125.695)" fill="white"/>
<path d="M107.61 16.7182C107.61 25.9514 100.133 33.4364 90.9102 33.4364C81.6872 33.4364 74.2105 25.9514 74.2105 16.7182C74.2105 7.48498 81.6872 0 90.9102 0C100.133 0 107.61 7.48498 107.61 16.7182ZM76.7155 16.7182C76.7155 24.5664 83.0707 30.9286 90.9102 30.9286C98.7497 30.9286 105.105 24.5664 105.105 16.7182C105.105 8.86996 98.7497 2.50773 90.9102 2.50773C83.0707 2.50773 76.7155 8.86996 76.7155 16.7182Z" fill="white"/>
<path d="M37.3994 135.363C37.3994 144.597 29.9227 152.081 20.6997 152.081C11.4767 152.081 4 144.597 4 135.363C4 126.13 11.4767 118.645 20.6997 118.645C29.9227 118.645 37.3994 126.13 37.3994 135.363ZM6.50495 135.363C6.50495 143.212 12.8602 149.574 20.6997 149.574C28.5392 149.574 34.8944 143.212 34.8944 135.363C34.8944 127.515 28.5392 121.153 20.6997 121.153C12.8602 121.153 6.50495 127.515 6.50495 135.363Z" fill="white"/>
<path d="M178 135.363C178 144.597 170.523 152.081 161.3 152.081C152.077 152.081 144.601 144.597 144.601 135.363C144.601 126.13 152.077 118.645 161.3 118.645C170.523 118.645 178 126.13 178 135.363ZM147.106 135.363C147.106 143.212 153.461 149.574 161.3 149.574C169.14 149.574 175.495 143.212 175.495 135.363C175.495 127.515 169.14 121.153 161.3 121.153C153.461 121.153 147.106 127.515 147.106 135.363Z" fill="white"/>
<path d="M112.985 129.764L68.8763 129.764L46.8217 91.5225L68.8772 53.2789L112.986 53.2789L135.041 91.5209L112.985 129.764Z" stroke="#C6A708" stroke-width="4"/>
</g>
<defs>
<filter id="filter0_d_9_877" x="0" y="0" width="182" height="163" filterUnits="userSpaceOnUse" color-interpolation-filters="sRGB">
<feFlood flood-opacity="0" result="BackgroundImageFix"/>
<feColorMatrix in="SourceAlpha" type="matrix" values="0 0 0 0 0 0 0 0 0 0 0 0 0 0 0 0 0 0 127 0" result="hardAlpha"/>
<feOffset dy="4"/>
<feGaussianBlur stdDeviation="2"/>
<feComposite in2="hardAlpha" operator="out"/>
<feColorMatrix type="matrix" values="0 0 0 0 0 0 0 0 0 0 0 0 0 0 0 0 0 0 0.25 0"/>
<feBlend mode="normal" in2="BackgroundImageFix" result="effect1_dropShadow_9_877"/>
<feBlend mode="normal" in="SourceGraphic" in2="effect1_dropShadow_9_877" result="shape"/>
</filter>
</defs>
</svg>
